<svg xmlns="http://www.w3.org/2000/svg" width="77.468" height="15.484" viewBox="0 0 77.468 15.484">
  <path id="Tracciato_3" data-name="Tracciato 3" d="M4002.2,1111.87h-3.79a.506.506,0,0,0-.557.579v14.331a.5.5,0,0,0,.557.573h3.79a.506.506,0,0,0,.557-.573v-14.331A.508.508,0,0,0,4002.2,1111.87Zm-9.393,3.976H3987.1a3.365,3.365,0,0,0-3.665,3.539v4.435a3.364,3.364,0,0,0,3.665,3.533h5.707a3.362,3.362,0,0,0,3.665-3.533v-4.435A3.363,3.363,0,0,0,3992.812,1115.846Zm-1.442,7.728a1.361,1.361,0,1,1-2.714,0v-3.943a1.361,1.361,0,1,1,2.714,0Zm17.628-7.728h-3.959a.513.513,0,0,0-.535.573v10.507c0,.328.235.426.535.426h3.889c.42,0,.589-.224.589-.634V1116.49C4009.517,1116.141,4009.4,1115.846,4009,1115.846Zm0-3.976h-3.959c-.306,0-.535.109-.535.442v2.485c0,.317.246.4.535.4H4009a.46.46,0,0,0,.519-.519v-2.37C4009.517,1111.98,4009.3,1111.87,4009,1111.87Zm14.948,3.976h-4.173a.611.611,0,0,0-.649.557l-1.312,6.685c-.033.169-.125.294-.311.294a.326.326,0,0,1-.328-.294l-1.212-6.5c-.055-.295-.131-.738-.519-.738h-4.484c-.213,0-.448.065-.448.322a.894.894,0,0,0,.043.235l2.5,10.316a.738.738,0,0,0,.82.634h6.909a.967.967,0,0,0,1.048-.634l2.578-10.136a1.347,1.347,0,0,0,.032-.252A.443.443,0,0,0,4023.946,1115.846Zm13.9,7.476h-4.233c-.251,0-.476.055-.513.333l-.066.5c-.087.694-.939.852-1.507.852-.9,0-1.732-.289-1.732-1.354,0-.988.787-1.272,1.622-1.272h6.2c.3,0,.567-.159.567-.481v-2.7a3.464,3.464,0,0,0-3.6-3.353h-6.226a3.332,3.332,0,0,0-3.479,3.271v5.063a3.138,3.138,0,0,0,3.108,3.173h6.733a3.2,3.2,0,0,0,3.469-3.293v-.388A.371.371,0,0,0,4037.851,1123.323Zm-6.324-5.074c1.125,0,1.639.48,1.639,1.6a.469.469,0,0,1-.52.525h-2.222c-.437,0-.6-.246-.6-.662C4029.822,1118.631,4030.521,1118.249,4031.526,1118.249Zm14.445-2.4h-.744a.507.507,0,0,1-.551-.574v-2.665c0-.4-.071-.737-.541-.737h-3.588c-.48,0-.885.12-.885.688v11.562a3.243,3.243,0,0,0,.508,2.016,3.047,3.047,0,0,0,2.513,1.217h3.124a.6.6,0,0,0,.623-.682v-2.333c0-.328-.1-.518-.458-.518h-.164c-.885,0-1.229-.552-1.229-1.382V1120.1c0-.311.125-.645.492-.645h.956c.344,0,.529-.1.529-.475v-2.49C4046.555,1116.091,4046.38,1115.846,4045.972,1115.846Zm8.126,0h-.742a.51.51,0,0,1-.551-.574v-2.665c0-.4-.072-.737-.542-.737h-3.588c-.481,0-.889.12-.889.688v11.562a3.209,3.209,0,0,0,.517,2.016,3.027,3.027,0,0,0,2.5,1.217h3.129a.6.6,0,0,0,.623-.682v-2.333c0-.328-.1-.518-.458-.518h-.164c-.879,0-1.234-.552-1.234-1.382V1120.1c0-.311.131-.645.5-.645h.956c.344,0,.529-.1.529-.475v-2.49C4054.682,1116.091,4054.507,1115.846,4054.1,1115.846Zm6.29,0h-3.958a.513.513,0,0,0-.535.573v.071h0v10.437c0,.328.234.426.535.426h3.888c.421,0,.591-.224.591-.634V1116.49C4060.908,1116.141,4060.787,1115.846,4060.388,1115.846Zm0-3.976h-3.96c-.305,0-.534.109-.534.442v2.485c0,.317.246.4.534.4h3.96a.46.46,0,0,0,.519-.519v-2.37C4060.908,1111.98,4060.694,1111.87,4060.389,1111.87Z" transform="translate(-3983.44 -1111.87)" fill="#333" fill-rule="evenodd"/>
</svg>
