<svg xmlns="http://www.w3.org/2000/svg" width="476.951" height="421" viewBox="0 0 476.951 421">
  <g id="Raggruppa_525" data-name="Raggruppa 525" transform="translate(-3434.17 -896.46)">
    <path id="Tracciato_4" data-name="Tracciato 4" d="M3777.049,896.46H3568.243c-79.324,0-134.073,47.95-134.073,129.47v162.258c0,81.31,54.748,129.271,134.073,129.271h208.794c79.523,0,134.072-47.962,134.084-129.271V1025.93C3911.121,944.422,3856.572,896.46,3777.049,896.46Zm-52.762,282.722c0,28.77-19.378,53.743-49.561,53.743-30.37,0-49.749-24.985-49.749-53.743v-144.27c0-28.77,19.378-53.755,49.749-53.732,30.183,0,49.561,24.962,49.561,53.732Z" transform="translate(0 0)" fill="#e8e8e8" fill-rule="evenodd"/>
  </g>
</svg>
