<svg xmlns="http://www.w3.org/2000/svg" width="922.181" height="814.001" viewBox="0 0 922.181 814.001">
  <g id="Raggruppa_523" data-name="Raggruppa 523" transform="translate(-3434.17 -896.46)">
    <path id="Tracciato_4" data-name="Tracciato 4" d="M4097.124,896.46H3693.4c-153.373,0-259.228,92.711-259.228,250.33v313.725c0,157.212,105.855,249.946,259.228,249.946h403.7c153.758,0,259.228-92.733,259.251-249.946V1146.79C4356.352,989.193,4250.88,896.46,4097.124,896.46ZM3995.108,1443.1c0,55.627-37.468,103.912-95.826,103.912-58.721,0-96.188-48.308-96.188-103.912V1164.158c0-55.627,37.468-103.935,96.188-103.89,58.358,0,95.826,48.264,95.826,103.89Z" transform="translate(0 0)" fill="#d61a0c" fill-rule="evenodd"/>
  </g>
</svg>
